<mxfile host="app.diagrams.net" modified="2024-02-03T14:00:56.124Z" agent="Mozilla/5.0 (Windows NT 10.0; Win64; x64) AppleWebKit/537.36 (KHTML, like Gecko) Chrome/121.0.0.0 Safari/537.36 Edg/121.0.0.0" etag="Y6A15TGUDcDo2O2-JnuD" version="23.0.2" type="onedrive">
  <diagram name="第 1 页" id="Ogoxaame5EVT2_0ldYU4">
    <mxGraphModel grid="0" page="0" gridSize="10" guides="1" tooltips="1" connect="1" arrows="1" fold="1" pageScale="1" pageWidth="20000" pageHeight="40000" math="0" shadow="0">
      <root>
        <mxCell id="0" />
        <mxCell id="1" parent="0" />
        <mxCell id="jCWovnf3UKTLc14nrEl1-61" style="edgeStyle=orthogonalEdgeStyle;rounded=0;orthogonalLoop=1;jettySize=auto;html=1;exitX=1;exitY=0.75;exitDx=0;exitDy=0;entryX=0;entryY=0.5;entryDx=0;entryDy=0;fontFamily=Helvetica;fontSize=12;fontColor=default;startSize=26;" edge="1" parent="1" source="jCWovnf3UKTLc14nrEl1-1" target="jCWovnf3UKTLc14nrEl1-3">
          <mxGeometry relative="1" as="geometry" />
        </mxCell>
        <mxCell id="jCWovnf3UKTLc14nrEl1-62" value="付款细节" style="edgeLabel;html=1;align=center;verticalAlign=middle;resizable=0;points=[];fontSize=12;fontFamily=Helvetica;fontColor=default;" connectable="0" vertex="1" parent="jCWovnf3UKTLc14nrEl1-61">
          <mxGeometry x="0.4312" y="5" relative="1" as="geometry">
            <mxPoint as="offset" />
          </mxGeometry>
        </mxCell>
        <mxCell id="jCWovnf3UKTLc14nrEl1-1" value="客户" style="whiteSpace=wrap;html=1;aspect=fixed;" vertex="1" parent="1">
          <mxGeometry x="78" y="-9" width="80" height="80" as="geometry" />
        </mxCell>
        <mxCell id="jCWovnf3UKTLc14nrEl1-68" style="edgeStyle=orthogonalEdgeStyle;rounded=0;orthogonalLoop=1;jettySize=auto;html=1;exitX=1;exitY=0.75;exitDx=0;exitDy=0;entryX=0.5;entryY=1;entryDx=0;entryDy=0;fontFamily=Helvetica;fontSize=12;fontColor=default;startSize=26;" edge="1" parent="1" source="jCWovnf3UKTLc14nrEl1-2" target="jCWovnf3UKTLc14nrEl1-3">
          <mxGeometry relative="1" as="geometry" />
        </mxCell>
        <mxCell id="jCWovnf3UKTLc14nrEl1-69" value="订单信息" style="edgeLabel;html=1;align=center;verticalAlign=middle;resizable=0;points=[];fontSize=12;fontFamily=Helvetica;fontColor=default;" connectable="0" vertex="1" parent="jCWovnf3UKTLc14nrEl1-68">
          <mxGeometry x="-0.2054" y="2" relative="1" as="geometry">
            <mxPoint as="offset" />
          </mxGeometry>
        </mxCell>
        <mxCell id="jCWovnf3UKTLc14nrEl1-2" value="客户" style="whiteSpace=wrap;html=1;aspect=fixed;" vertex="1" parent="1">
          <mxGeometry x="78" y="187" width="80" height="80" as="geometry" />
        </mxCell>
        <mxCell id="jCWovnf3UKTLc14nrEl1-59" style="edgeStyle=orthogonalEdgeStyle;rounded=0;orthogonalLoop=1;jettySize=auto;html=1;exitX=0.5;exitY=0;exitDx=0;exitDy=0;entryX=1;entryY=0.5;entryDx=0;entryDy=0;fontFamily=Helvetica;fontSize=12;fontColor=default;startSize=26;" edge="1" parent="1" source="jCWovnf3UKTLc14nrEl1-3" target="jCWovnf3UKTLc14nrEl1-1">
          <mxGeometry relative="1" as="geometry" />
        </mxCell>
        <mxCell id="jCWovnf3UKTLc14nrEl1-60" value="交付记录" style="edgeLabel;html=1;align=center;verticalAlign=middle;resizable=0;points=[];fontSize=12;fontFamily=Helvetica;fontColor=default;" connectable="0" vertex="1" parent="jCWovnf3UKTLc14nrEl1-59">
          <mxGeometry x="0.3267" y="-6" relative="1" as="geometry">
            <mxPoint as="offset" />
          </mxGeometry>
        </mxCell>
        <mxCell id="jCWovnf3UKTLc14nrEl1-64" style="edgeStyle=orthogonalEdgeStyle;rounded=0;orthogonalLoop=1;jettySize=auto;html=1;exitX=0;exitY=0.75;exitDx=0;exitDy=0;entryX=0.5;entryY=1;entryDx=0;entryDy=0;fontFamily=Helvetica;fontSize=12;fontColor=default;startSize=26;" edge="1" parent="1" source="jCWovnf3UKTLc14nrEl1-3" target="jCWovnf3UKTLc14nrEl1-1">
          <mxGeometry relative="1" as="geometry" />
        </mxCell>
        <mxCell id="jCWovnf3UKTLc14nrEl1-65" value="费用清单" style="edgeLabel;html=1;align=center;verticalAlign=middle;resizable=0;points=[];fontSize=12;fontFamily=Helvetica;fontColor=default;" connectable="0" vertex="1" parent="jCWovnf3UKTLc14nrEl1-64">
          <mxGeometry x="0.0801" y="-5" relative="1" as="geometry">
            <mxPoint as="offset" />
          </mxGeometry>
        </mxCell>
        <mxCell id="jCWovnf3UKTLc14nrEl1-66" style="edgeStyle=orthogonalEdgeStyle;rounded=0;orthogonalLoop=1;jettySize=auto;html=1;exitX=0;exitY=1;exitDx=0;exitDy=0;entryX=0.5;entryY=0;entryDx=0;entryDy=0;fontFamily=Helvetica;fontSize=12;fontColor=default;startSize=26;" edge="1" parent="1" source="jCWovnf3UKTLc14nrEl1-3" target="jCWovnf3UKTLc14nrEl1-2">
          <mxGeometry relative="1" as="geometry" />
        </mxCell>
        <mxCell id="jCWovnf3UKTLc14nrEl1-67" value="收据" style="edgeLabel;html=1;align=center;verticalAlign=middle;resizable=0;points=[];fontSize=12;fontFamily=Helvetica;fontColor=default;" connectable="0" vertex="1" parent="jCWovnf3UKTLc14nrEl1-66">
          <mxGeometry x="0.5113" y="1" relative="1" as="geometry">
            <mxPoint x="1" as="offset" />
          </mxGeometry>
        </mxCell>
        <mxCell id="jCWovnf3UKTLc14nrEl1-70" style="edgeStyle=orthogonalEdgeStyle;rounded=0;orthogonalLoop=1;jettySize=auto;html=1;exitX=1;exitY=0.25;exitDx=0;exitDy=0;entryX=0;entryY=0.25;entryDx=0;entryDy=0;fontFamily=Helvetica;fontSize=12;fontColor=default;startSize=26;" edge="1" parent="1" source="jCWovnf3UKTLc14nrEl1-3" target="jCWovnf3UKTLc14nrEl1-4">
          <mxGeometry relative="1" as="geometry" />
        </mxCell>
        <mxCell id="jCWovnf3UKTLc14nrEl1-71" value="采购订单" style="edgeLabel;html=1;align=center;verticalAlign=middle;resizable=0;points=[];fontSize=12;fontFamily=Helvetica;fontColor=default;" connectable="0" vertex="1" parent="jCWovnf3UKTLc14nrEl1-70">
          <mxGeometry x="-0.0101" relative="1" as="geometry">
            <mxPoint as="offset" />
          </mxGeometry>
        </mxCell>
        <mxCell id="jCWovnf3UKTLc14nrEl1-76" style="edgeStyle=orthogonalEdgeStyle;rounded=0;orthogonalLoop=1;jettySize=auto;html=1;exitX=0.75;exitY=1;exitDx=0;exitDy=0;entryX=0.5;entryY=1;entryDx=0;entryDy=0;fontFamily=Helvetica;fontSize=12;fontColor=default;startSize=26;" edge="1" parent="1" source="jCWovnf3UKTLc14nrEl1-3" target="jCWovnf3UKTLc14nrEl1-4">
          <mxGeometry relative="1" as="geometry">
            <Array as="points">
              <mxPoint x="433" y="182" />
              <mxPoint x="668" y="182" />
            </Array>
          </mxGeometry>
        </mxCell>
        <mxCell id="jCWovnf3UKTLc14nrEl1-77" value="支付细节" style="edgeLabel;html=1;align=center;verticalAlign=middle;resizable=0;points=[];fontSize=12;fontFamily=Helvetica;fontColor=default;" connectable="0" vertex="1" parent="jCWovnf3UKTLc14nrEl1-76">
          <mxGeometry x="-0.0853" y="-3" relative="1" as="geometry">
            <mxPoint x="1" as="offset" />
          </mxGeometry>
        </mxCell>
        <mxCell id="jCWovnf3UKTLc14nrEl1-3" value="披萨信息系统" style="rounded=1;whiteSpace=wrap;html=1;" vertex="1" parent="1">
          <mxGeometry x="343" y="88" width="120" height="60" as="geometry" />
        </mxCell>
        <mxCell id="jCWovnf3UKTLc14nrEl1-74" style="edgeStyle=orthogonalEdgeStyle;rounded=0;orthogonalLoop=1;jettySize=auto;html=1;exitX=0;exitY=0.75;exitDx=0;exitDy=0;entryX=1;entryY=0.75;entryDx=0;entryDy=0;fontFamily=Helvetica;fontSize=12;fontColor=default;startSize=26;" edge="1" parent="1" source="jCWovnf3UKTLc14nrEl1-4" target="jCWovnf3UKTLc14nrEl1-3">
          <mxGeometry relative="1" as="geometry" />
        </mxCell>
        <mxCell id="jCWovnf3UKTLc14nrEl1-75" value="供应量" style="edgeLabel;html=1;align=center;verticalAlign=middle;resizable=0;points=[];fontSize=12;fontFamily=Helvetica;fontColor=default;" connectable="0" vertex="1" parent="jCWovnf3UKTLc14nrEl1-74">
          <mxGeometry x="-0.4143" y="-4" relative="1" as="geometry">
            <mxPoint x="-29" y="-3" as="offset" />
          </mxGeometry>
        </mxCell>
        <mxCell id="jCWovnf3UKTLc14nrEl1-4" value="供应商" style="whiteSpace=wrap;html=1;aspect=fixed;" vertex="1" parent="1">
          <mxGeometry x="628" y="78" width="80" height="80" as="geometry" />
        </mxCell>
        <mxCell id="jCWovnf3UKTLc14nrEl1-118" style="edgeStyle=orthogonalEdgeStyle;rounded=0;orthogonalLoop=1;jettySize=auto;html=1;exitX=0.5;exitY=1;exitDx=0;exitDy=0;entryX=0.5;entryY=0;entryDx=0;entryDy=0;fontFamily=Helvetica;fontSize=12;fontColor=default;startSize=26;" edge="1" parent="1" source="jCWovnf3UKTLc14nrEl1-5" target="jCWovnf3UKTLc14nrEl1-15">
          <mxGeometry relative="1" as="geometry" />
        </mxCell>
        <mxCell id="jCWovnf3UKTLc14nrEl1-119" value="生产计划" style="edgeLabel;html=1;align=center;verticalAlign=middle;resizable=0;points=[];fontSize=12;fontFamily=Helvetica;fontColor=default;" connectable="0" vertex="1" parent="jCWovnf3UKTLc14nrEl1-118">
          <mxGeometry x="0.1271" y="-2" relative="1" as="geometry">
            <mxPoint as="offset" />
          </mxGeometry>
        </mxCell>
        <mxCell id="jCWovnf3UKTLc14nrEl1-5" value="生产计划表" style="html=1;dashed=0;whiteSpace=wrap;shape=partialRectangle;right=0;" vertex="1" parent="1">
          <mxGeometry x="441" y="728" width="100" height="30" as="geometry" />
        </mxCell>
        <mxCell id="jCWovnf3UKTLc14nrEl1-78" style="edgeStyle=orthogonalEdgeStyle;rounded=0;orthogonalLoop=1;jettySize=auto;html=1;exitX=1;exitY=0.5;exitDx=0;exitDy=0;fontFamily=Helvetica;fontSize=12;fontColor=default;startSize=26;" edge="1" parent="1" source="jCWovnf3UKTLc14nrEl1-6" target="jCWovnf3UKTLc14nrEl1-7">
          <mxGeometry relative="1" as="geometry" />
        </mxCell>
        <mxCell id="jCWovnf3UKTLc14nrEl1-79" value="订单信息" style="edgeLabel;html=1;align=center;verticalAlign=middle;resizable=0;points=[];fontSize=12;fontFamily=Helvetica;fontColor=default;" connectable="0" vertex="1" parent="jCWovnf3UKTLc14nrEl1-78">
          <mxGeometry x="-0.1195" y="2" relative="1" as="geometry">
            <mxPoint as="offset" />
          </mxGeometry>
        </mxCell>
        <mxCell id="jCWovnf3UKTLc14nrEl1-6" value="客户" style="whiteSpace=wrap;html=1;aspect=fixed;" vertex="1" parent="1">
          <mxGeometry x="192" y="533" width="80" height="80" as="geometry" />
        </mxCell>
        <mxCell id="jCWovnf3UKTLc14nrEl1-80" style="edgeStyle=orthogonalEdgeStyle;rounded=0;orthogonalLoop=1;jettySize=auto;html=1;exitX=1;exitY=0.5;exitDx=0;exitDy=0;entryX=0;entryY=0.5;entryDx=0;entryDy=0;fontFamily=Helvetica;fontSize=12;fontColor=default;startSize=26;" edge="1" parent="1" source="jCWovnf3UKTLc14nrEl1-7" target="jCWovnf3UKTLc14nrEl1-12">
          <mxGeometry relative="1" as="geometry" />
        </mxCell>
        <mxCell id="jCWovnf3UKTLc14nrEl1-81" value="订单信息" style="edgeLabel;html=1;align=center;verticalAlign=middle;resizable=0;points=[];fontSize=12;fontFamily=Helvetica;fontColor=default;" connectable="0" vertex="1" parent="jCWovnf3UKTLc14nrEl1-80">
          <mxGeometry x="-0.1113" y="4" relative="1" as="geometry">
            <mxPoint as="offset" />
          </mxGeometry>
        </mxCell>
        <mxCell id="jCWovnf3UKTLc14nrEl1-7" value="1&lt;br&gt;销售" style="rounded=1;whiteSpace=wrap;html=1;" vertex="1" parent="1">
          <mxGeometry x="363" y="533" width="85" height="81" as="geometry" />
        </mxCell>
        <mxCell id="jCWovnf3UKTLc14nrEl1-82" style="edgeStyle=orthogonalEdgeStyle;rounded=0;orthogonalLoop=1;jettySize=auto;html=1;exitX=0.5;exitY=1;exitDx=0;exitDy=0;entryX=1;entryY=0.5;entryDx=0;entryDy=0;fontFamily=Helvetica;fontSize=12;fontColor=default;startSize=26;" edge="1" parent="1" source="jCWovnf3UKTLc14nrEl1-12" target="jCWovnf3UKTLc14nrEl1-13">
          <mxGeometry relative="1" as="geometry" />
        </mxCell>
        <mxCell id="jCWovnf3UKTLc14nrEl1-83" value="销售订单" style="edgeLabel;html=1;align=center;verticalAlign=middle;resizable=0;points=[];fontSize=12;fontFamily=Helvetica;fontColor=default;" connectable="0" vertex="1" parent="jCWovnf3UKTLc14nrEl1-82">
          <mxGeometry x="0.3638" y="3" relative="1" as="geometry">
            <mxPoint x="-1" as="offset" />
          </mxGeometry>
        </mxCell>
        <mxCell id="jCWovnf3UKTLc14nrEl1-12" value="销售订单表" style="html=1;dashed=0;whiteSpace=wrap;shape=partialRectangle;right=0;" vertex="1" parent="1">
          <mxGeometry x="560" y="558" width="100" height="30" as="geometry" />
        </mxCell>
        <mxCell id="jCWovnf3UKTLc14nrEl1-116" style="edgeStyle=orthogonalEdgeStyle;rounded=0;orthogonalLoop=1;jettySize=auto;html=1;exitX=0.5;exitY=1;exitDx=0;exitDy=0;entryX=0;entryY=0.75;entryDx=0;entryDy=0;fontFamily=Helvetica;fontSize=12;fontColor=default;startSize=26;" edge="1" parent="1" source="jCWovnf3UKTLc14nrEl1-13" target="jCWovnf3UKTLc14nrEl1-5">
          <mxGeometry relative="1" as="geometry" />
        </mxCell>
        <mxCell id="jCWovnf3UKTLc14nrEl1-117" value="生产计划" style="edgeLabel;html=1;align=center;verticalAlign=middle;resizable=0;points=[];fontSize=12;fontFamily=Helvetica;fontColor=default;" connectable="0" vertex="1" parent="jCWovnf3UKTLc14nrEl1-116">
          <mxGeometry x="-0.1038" relative="1" as="geometry">
            <mxPoint x="-1" as="offset" />
          </mxGeometry>
        </mxCell>
        <mxCell id="jCWovnf3UKTLc14nrEl1-13" value="2&lt;br&gt;生产控制" style="rounded=1;whiteSpace=wrap;html=1;" vertex="1" parent="1">
          <mxGeometry x="255" y="647" width="85" height="81" as="geometry" />
        </mxCell>
        <mxCell id="jCWovnf3UKTLc14nrEl1-87" style="edgeStyle=orthogonalEdgeStyle;rounded=0;orthogonalLoop=1;jettySize=auto;html=1;exitX=0.5;exitY=0;exitDx=0;exitDy=0;entryX=0;entryY=1;entryDx=0;entryDy=0;fontFamily=Helvetica;fontSize=12;fontColor=default;startSize=26;" edge="1" parent="1" source="jCWovnf3UKTLc14nrEl1-14" target="jCWovnf3UKTLc14nrEl1-13">
          <mxGeometry relative="1" as="geometry" />
        </mxCell>
        <mxCell id="jCWovnf3UKTLc14nrEl1-88" value="库存量" style="edgeLabel;html=1;align=center;verticalAlign=middle;resizable=0;points=[];fontSize=12;fontFamily=Helvetica;fontColor=default;" connectable="0" vertex="1" parent="jCWovnf3UKTLc14nrEl1-87">
          <mxGeometry x="0.0139" y="-5" relative="1" as="geometry">
            <mxPoint as="offset" />
          </mxGeometry>
        </mxCell>
        <mxCell id="jCWovnf3UKTLc14nrEl1-93" style="edgeStyle=orthogonalEdgeStyle;rounded=0;orthogonalLoop=1;jettySize=auto;html=1;exitX=0;exitY=1;exitDx=0;exitDy=0;entryX=0;entryY=0.75;entryDx=0;entryDy=0;fontFamily=Helvetica;fontSize=12;fontColor=default;startSize=26;" edge="1" parent="1" source="jCWovnf3UKTLc14nrEl1-14" target="jCWovnf3UKTLc14nrEl1-19">
          <mxGeometry relative="1" as="geometry" />
        </mxCell>
        <mxCell id="jCWovnf3UKTLc14nrEl1-94" value="披萨库存" style="edgeLabel;html=1;align=center;verticalAlign=middle;resizable=0;points=[];fontSize=12;fontFamily=Helvetica;fontColor=default;" connectable="0" vertex="1" parent="jCWovnf3UKTLc14nrEl1-93">
          <mxGeometry x="0.3773" y="1" relative="1" as="geometry">
            <mxPoint as="offset" />
          </mxGeometry>
        </mxCell>
        <mxCell id="jCWovnf3UKTLc14nrEl1-95" style="edgeStyle=orthogonalEdgeStyle;rounded=0;orthogonalLoop=1;jettySize=auto;html=1;exitX=0.25;exitY=1;exitDx=0;exitDy=0;entryX=0;entryY=0.25;entryDx=0;entryDy=0;fontFamily=Helvetica;fontSize=12;fontColor=default;startSize=26;" edge="1" parent="1" source="jCWovnf3UKTLc14nrEl1-14" target="jCWovnf3UKTLc14nrEl1-19">
          <mxGeometry relative="1" as="geometry" />
        </mxCell>
        <mxCell id="jCWovnf3UKTLc14nrEl1-96" value="原材料数量" style="edgeLabel;html=1;align=center;verticalAlign=middle;resizable=0;points=[];fontSize=12;fontFamily=Helvetica;fontColor=default;" connectable="0" vertex="1" parent="jCWovnf3UKTLc14nrEl1-95">
          <mxGeometry x="0.3864" y="2" relative="1" as="geometry">
            <mxPoint as="offset" />
          </mxGeometry>
        </mxCell>
        <mxCell id="jCWovnf3UKTLc14nrEl1-124" style="edgeStyle=orthogonalEdgeStyle;rounded=0;orthogonalLoop=1;jettySize=auto;html=1;exitX=0.5;exitY=1;exitDx=0;exitDy=0;entryX=0.5;entryY=0;entryDx=0;entryDy=0;fontFamily=Helvetica;fontSize=12;fontColor=default;startSize=26;" edge="1" parent="1" source="jCWovnf3UKTLc14nrEl1-14" target="jCWovnf3UKTLc14nrEl1-18">
          <mxGeometry relative="1" as="geometry">
            <Array as="points">
              <mxPoint x="201" y="959" />
              <mxPoint x="495" y="959" />
            </Array>
          </mxGeometry>
        </mxCell>
        <mxCell id="jCWovnf3UKTLc14nrEl1-125" value="库存量" style="edgeLabel;html=1;align=center;verticalAlign=middle;resizable=0;points=[];fontSize=12;fontFamily=Helvetica;fontColor=default;" connectable="0" vertex="1" parent="jCWovnf3UKTLc14nrEl1-124">
          <mxGeometry x="0.0292" y="-1" relative="1" as="geometry">
            <mxPoint as="offset" />
          </mxGeometry>
        </mxCell>
        <mxCell id="jCWovnf3UKTLc14nrEl1-14" value="库存表" style="html=1;dashed=0;whiteSpace=wrap;shape=partialRectangle;right=0;" vertex="1" parent="1">
          <mxGeometry x="151" y="842" width="100" height="30" as="geometry" />
        </mxCell>
        <mxCell id="jCWovnf3UKTLc14nrEl1-89" style="edgeStyle=orthogonalEdgeStyle;rounded=0;orthogonalLoop=1;jettySize=auto;html=1;exitX=0;exitY=0.5;exitDx=0;exitDy=0;fontFamily=Helvetica;fontSize=12;fontColor=default;startSize=26;" edge="1" parent="1" source="jCWovnf3UKTLc14nrEl1-15" target="jCWovnf3UKTLc14nrEl1-14">
          <mxGeometry relative="1" as="geometry" />
        </mxCell>
        <mxCell id="jCWovnf3UKTLc14nrEl1-90" value="制作完成的&lt;br&gt;披萨信息" style="edgeLabel;html=1;align=center;verticalAlign=middle;resizable=0;points=[];fontSize=12;fontFamily=Helvetica;fontColor=default;" connectable="0" vertex="1" parent="jCWovnf3UKTLc14nrEl1-89">
          <mxGeometry x="0.0837" y="-2" relative="1" as="geometry">
            <mxPoint x="-1" as="offset" />
          </mxGeometry>
        </mxCell>
        <mxCell id="jCWovnf3UKTLc14nrEl1-121" style="edgeStyle=orthogonalEdgeStyle;rounded=0;orthogonalLoop=1;jettySize=auto;html=1;exitX=0.5;exitY=1;exitDx=0;exitDy=0;entryX=1;entryY=1;entryDx=0;entryDy=0;fontFamily=Helvetica;fontSize=12;fontColor=default;startSize=26;" edge="1" parent="1" source="jCWovnf3UKTLc14nrEl1-15" target="jCWovnf3UKTLc14nrEl1-14">
          <mxGeometry relative="1" as="geometry" />
        </mxCell>
        <mxCell id="jCWovnf3UKTLc14nrEl1-123" value="原材料中领单" style="edgeLabel;html=1;align=center;verticalAlign=middle;resizable=0;points=[];fontSize=12;fontFamily=Helvetica;fontColor=default;" connectable="0" vertex="1" parent="jCWovnf3UKTLc14nrEl1-121">
          <mxGeometry x="0.1785" relative="1" as="geometry">
            <mxPoint as="offset" />
          </mxGeometry>
        </mxCell>
        <mxCell id="jCWovnf3UKTLc14nrEl1-15" value="3&lt;br&gt;生产" style="rounded=1;whiteSpace=wrap;html=1;" vertex="1" parent="1">
          <mxGeometry x="363" y="816.5" width="85" height="81" as="geometry" />
        </mxCell>
        <mxCell id="jCWovnf3UKTLc14nrEl1-97" style="edgeStyle=orthogonalEdgeStyle;rounded=0;orthogonalLoop=1;jettySize=auto;html=1;exitX=0;exitY=0.5;exitDx=0;exitDy=0;entryX=1;entryY=0.25;entryDx=0;entryDy=0;fontFamily=Helvetica;fontSize=12;fontColor=default;startSize=26;" edge="1" parent="1" source="jCWovnf3UKTLc14nrEl1-16" target="jCWovnf3UKTLc14nrEl1-15">
          <mxGeometry relative="1" as="geometry" />
        </mxCell>
        <mxCell id="jCWovnf3UKTLc14nrEl1-98" value="披萨配方" style="edgeLabel;html=1;align=center;verticalAlign=middle;resizable=0;points=[];fontSize=12;fontFamily=Helvetica;fontColor=default;" connectable="0" vertex="1" parent="jCWovnf3UKTLc14nrEl1-97">
          <mxGeometry x="0.3063" y="-5" relative="1" as="geometry">
            <mxPoint as="offset" />
          </mxGeometry>
        </mxCell>
        <mxCell id="jCWovnf3UKTLc14nrEl1-16" value="配方表" style="html=1;dashed=0;whiteSpace=wrap;shape=partialRectangle;right=0;" vertex="1" parent="1">
          <mxGeometry x="560" y="822" width="100" height="30" as="geometry" />
        </mxCell>
        <mxCell id="jCWovnf3UKTLc14nrEl1-17" value="采购订单表" style="html=1;dashed=0;whiteSpace=wrap;shape=partialRectangle;right=0;" vertex="1" parent="1">
          <mxGeometry x="560" y="886" width="100" height="30" as="geometry" />
        </mxCell>
        <mxCell id="jCWovnf3UKTLc14nrEl1-101" style="edgeStyle=orthogonalEdgeStyle;rounded=0;orthogonalLoop=1;jettySize=auto;html=1;exitX=1;exitY=0.25;exitDx=0;exitDy=0;entryX=0.5;entryY=1;entryDx=0;entryDy=0;fontFamily=Helvetica;fontSize=12;fontColor=default;startSize=26;" edge="1" parent="1" source="jCWovnf3UKTLc14nrEl1-18" target="jCWovnf3UKTLc14nrEl1-17">
          <mxGeometry relative="1" as="geometry" />
        </mxCell>
        <mxCell id="jCWovnf3UKTLc14nrEl1-102" value="完成采购订单" style="edgeLabel;html=1;align=center;verticalAlign=middle;resizable=0;points=[];fontSize=12;fontFamily=Helvetica;fontColor=default;" connectable="0" vertex="1" parent="jCWovnf3UKTLc14nrEl1-101">
          <mxGeometry x="-0.6284" y="3" relative="1" as="geometry">
            <mxPoint x="25" y="2" as="offset" />
          </mxGeometry>
        </mxCell>
        <mxCell id="jCWovnf3UKTLc14nrEl1-105" style="edgeStyle=orthogonalEdgeStyle;rounded=0;orthogonalLoop=1;jettySize=auto;html=1;exitX=0.5;exitY=1;exitDx=0;exitDy=0;entryX=0;entryY=0.75;entryDx=0;entryDy=0;fontFamily=Helvetica;fontSize=12;fontColor=default;startSize=26;" edge="1" parent="1" source="jCWovnf3UKTLc14nrEl1-18" target="jCWovnf3UKTLc14nrEl1-21">
          <mxGeometry relative="1" as="geometry" />
        </mxCell>
        <mxCell id="jCWovnf3UKTLc14nrEl1-106" value="采购订单" style="edgeLabel;html=1;align=center;verticalAlign=middle;resizable=0;points=[];fontSize=12;fontFamily=Helvetica;fontColor=default;" connectable="0" vertex="1" parent="jCWovnf3UKTLc14nrEl1-105">
          <mxGeometry x="0.326" y="6" relative="1" as="geometry">
            <mxPoint as="offset" />
          </mxGeometry>
        </mxCell>
        <mxCell id="jCWovnf3UKTLc14nrEl1-126" style="edgeStyle=orthogonalEdgeStyle;rounded=0;orthogonalLoop=1;jettySize=auto;html=1;exitX=0.75;exitY=0;exitDx=0;exitDy=0;entryX=0.75;entryY=1;entryDx=0;entryDy=0;fontFamily=Helvetica;fontSize=12;fontColor=default;startSize=26;" edge="1" parent="1" source="jCWovnf3UKTLc14nrEl1-18" target="jCWovnf3UKTLc14nrEl1-14">
          <mxGeometry relative="1" as="geometry">
            <Array as="points">
              <mxPoint x="516" y="941" />
              <mxPoint x="226" y="941" />
            </Array>
          </mxGeometry>
        </mxCell>
        <mxCell id="jCWovnf3UKTLc14nrEl1-127" value="原材料数量" style="edgeLabel;html=1;align=center;verticalAlign=middle;resizable=0;points=[];fontSize=12;fontFamily=Helvetica;fontColor=default;" connectable="0" vertex="1" parent="jCWovnf3UKTLc14nrEl1-126">
          <mxGeometry x="0.0554" y="-2" relative="1" as="geometry">
            <mxPoint as="offset" />
          </mxGeometry>
        </mxCell>
        <mxCell id="jCWovnf3UKTLc14nrEl1-18" value="4&lt;br&gt;采购" style="rounded=1;whiteSpace=wrap;html=1;" vertex="1" parent="1">
          <mxGeometry x="452" y="978" width="85" height="81" as="geometry" />
        </mxCell>
        <mxCell id="jCWovnf3UKTLc14nrEl1-99" style="edgeStyle=orthogonalEdgeStyle;rounded=0;orthogonalLoop=1;jettySize=auto;html=1;exitX=1;exitY=0.5;exitDx=0;exitDy=0;entryX=0;entryY=0.5;entryDx=0;entryDy=0;fontFamily=Helvetica;fontSize=12;fontColor=default;startSize=26;" edge="1" parent="1" source="jCWovnf3UKTLc14nrEl1-19" target="jCWovnf3UKTLc14nrEl1-18">
          <mxGeometry relative="1" as="geometry" />
        </mxCell>
        <mxCell id="jCWovnf3UKTLc14nrEl1-100" value="所需原材料" style="edgeLabel;html=1;align=center;verticalAlign=middle;resizable=0;points=[];fontSize=12;fontFamily=Helvetica;fontColor=default;" connectable="0" vertex="1" parent="jCWovnf3UKTLc14nrEl1-99">
          <mxGeometry x="-0.358" y="-2" relative="1" as="geometry">
            <mxPoint x="13" y="-2" as="offset" />
          </mxGeometry>
        </mxCell>
        <mxCell id="jCWovnf3UKTLc14nrEl1-129" style="edgeStyle=orthogonalEdgeStyle;rounded=0;orthogonalLoop=1;jettySize=auto;html=1;exitX=0.5;exitY=1;exitDx=0;exitDy=0;fontFamily=Helvetica;fontSize=12;fontColor=default;startSize=26;" edge="1" parent="1" source="jCWovnf3UKTLc14nrEl1-19" target="jCWovnf3UKTLc14nrEl1-128">
          <mxGeometry relative="1" as="geometry" />
        </mxCell>
        <mxCell id="jCWovnf3UKTLc14nrEl1-130" value="未完成订单" style="edgeLabel;html=1;align=center;verticalAlign=middle;resizable=0;points=[];fontSize=12;fontFamily=Helvetica;fontColor=default;" connectable="0" vertex="1" parent="jCWovnf3UKTLc14nrEl1-129">
          <mxGeometry x="0.0102" y="-2" relative="1" as="geometry">
            <mxPoint as="offset" />
          </mxGeometry>
        </mxCell>
        <mxCell id="jCWovnf3UKTLc14nrEl1-19" value="7&lt;br&gt;存储" style="rounded=1;whiteSpace=wrap;html=1;" vertex="1" parent="1">
          <mxGeometry x="272" y="978" width="85" height="81" as="geometry" />
        </mxCell>
        <mxCell id="jCWovnf3UKTLc14nrEl1-107" style="edgeStyle=orthogonalEdgeStyle;rounded=0;orthogonalLoop=1;jettySize=auto;html=1;exitX=0.5;exitY=0;exitDx=0;exitDy=0;entryX=0.75;entryY=1;entryDx=0;entryDy=0;fontFamily=Helvetica;fontSize=12;fontColor=default;startSize=26;" edge="1" parent="1" source="jCWovnf3UKTLc14nrEl1-21" target="jCWovnf3UKTLc14nrEl1-18">
          <mxGeometry relative="1" as="geometry" />
        </mxCell>
        <mxCell id="jCWovnf3UKTLc14nrEl1-108" value="供应量" style="edgeLabel;html=1;align=center;verticalAlign=middle;resizable=0;points=[];fontSize=12;fontFamily=Helvetica;fontColor=default;" connectable="0" vertex="1" parent="jCWovnf3UKTLc14nrEl1-107">
          <mxGeometry x="0.0522" y="-4" relative="1" as="geometry">
            <mxPoint as="offset" />
          </mxGeometry>
        </mxCell>
        <mxCell id="jCWovnf3UKTLc14nrEl1-21" value="供应商" style="html=1;dashed=0;whiteSpace=wrap;rounded=0;strokeColor=default;align=center;verticalAlign=middle;fontFamily=Helvetica;fontSize=12;fontColor=default;startSize=26;fillColor=#ffffff;" vertex="1" parent="1">
          <mxGeometry x="569" y="1110" width="63" height="48" as="geometry" />
        </mxCell>
        <mxCell id="jCWovnf3UKTLc14nrEl1-43" style="edgeStyle=orthogonalEdgeStyle;rounded=0;orthogonalLoop=1;jettySize=auto;html=1;exitX=1;exitY=1;exitDx=0;exitDy=0;entryX=0;entryY=0.25;entryDx=0;entryDy=0;fontFamily=Helvetica;fontSize=12;fontColor=default;startSize=26;" edge="1" parent="1" source="jCWovnf3UKTLc14nrEl1-22" target="jCWovnf3UKTLc14nrEl1-25">
          <mxGeometry relative="1" as="geometry" />
        </mxCell>
        <mxCell id="jCWovnf3UKTLc14nrEl1-44" value="付款细节" style="edgeLabel;html=1;align=center;verticalAlign=middle;resizable=0;points=[];fontSize=12;fontFamily=Helvetica;fontColor=default;" connectable="0" vertex="1" parent="jCWovnf3UKTLc14nrEl1-43">
          <mxGeometry x="-0.0691" y="2" relative="1" as="geometry">
            <mxPoint as="offset" />
          </mxGeometry>
        </mxCell>
        <mxCell id="jCWovnf3UKTLc14nrEl1-22" value="客户&amp;nbsp;" style="whiteSpace=wrap;html=1;aspect=fixed;" vertex="1" parent="1">
          <mxGeometry x="692" y="783.5" width="80" height="80" as="geometry" />
        </mxCell>
        <mxCell id="jCWovnf3UKTLc14nrEl1-31" style="edgeStyle=orthogonalEdgeStyle;rounded=0;orthogonalLoop=1;jettySize=auto;html=1;exitX=1;exitY=0.5;exitDx=0;exitDy=0;fontFamily=Helvetica;fontSize=12;fontColor=default;startSize=26;" edge="1" parent="1" source="jCWovnf3UKTLc14nrEl1-23" target="jCWovnf3UKTLc14nrEl1-25">
          <mxGeometry relative="1" as="geometry" />
        </mxCell>
        <mxCell id="jCWovnf3UKTLc14nrEl1-32" value="完成的采购订单" style="edgeLabel;html=1;align=center;verticalAlign=middle;resizable=0;points=[];fontSize=12;fontFamily=Helvetica;fontColor=default;" connectable="0" vertex="1" parent="jCWovnf3UKTLc14nrEl1-31">
          <mxGeometry x="-0.4785" y="2" relative="1" as="geometry">
            <mxPoint x="22" y="2" as="offset" />
          </mxGeometry>
        </mxCell>
        <mxCell id="jCWovnf3UKTLc14nrEl1-23" value="采购订单表" style="html=1;dashed=0;whiteSpace=wrap;shape=partialRectangle;right=0;" vertex="1" parent="1">
          <mxGeometry x="817" y="815.5" width="100" height="30" as="geometry" />
        </mxCell>
        <mxCell id="jCWovnf3UKTLc14nrEl1-28" style="edgeStyle=orthogonalEdgeStyle;rounded=0;orthogonalLoop=1;jettySize=auto;html=1;exitX=0;exitY=0.5;exitDx=0;exitDy=0;entryX=0.5;entryY=0;entryDx=0;entryDy=0;fontFamily=Helvetica;fontSize=12;fontColor=default;startSize=26;" edge="1" parent="1" source="jCWovnf3UKTLc14nrEl1-24" target="jCWovnf3UKTLc14nrEl1-22">
          <mxGeometry relative="1" as="geometry" />
        </mxCell>
        <mxCell id="jCWovnf3UKTLc14nrEl1-30" value="交付记录" style="edgeLabel;html=1;align=center;verticalAlign=middle;resizable=0;points=[];fontSize=12;fontFamily=Helvetica;fontColor=default;" connectable="0" vertex="1" parent="jCWovnf3UKTLc14nrEl1-28">
          <mxGeometry x="-0.1256" y="-3" relative="1" as="geometry">
            <mxPoint x="-1" as="offset" />
          </mxGeometry>
        </mxCell>
        <mxCell id="jCWovnf3UKTLc14nrEl1-57" style="edgeStyle=orthogonalEdgeStyle;rounded=0;orthogonalLoop=1;jettySize=auto;html=1;exitX=1;exitY=0.5;exitDx=0;exitDy=0;entryX=0.5;entryY=0;entryDx=0;entryDy=0;fontFamily=Helvetica;fontSize=12;fontColor=default;startSize=26;" edge="1" parent="1" source="jCWovnf3UKTLc14nrEl1-24" target="jCWovnf3UKTLc14nrEl1-26">
          <mxGeometry relative="1" as="geometry" />
        </mxCell>
        <mxCell id="jCWovnf3UKTLc14nrEl1-58" value="交付记录" style="edgeLabel;html=1;align=center;verticalAlign=middle;resizable=0;points=[];fontSize=12;fontFamily=Helvetica;fontColor=default;" connectable="0" vertex="1" parent="jCWovnf3UKTLc14nrEl1-57">
          <mxGeometry x="-0.4165" y="1" relative="1" as="geometry">
            <mxPoint as="offset" />
          </mxGeometry>
        </mxCell>
        <mxCell id="jCWovnf3UKTLc14nrEl1-114" style="edgeStyle=orthogonalEdgeStyle;rounded=0;orthogonalLoop=1;jettySize=auto;html=1;exitX=0.5;exitY=0;exitDx=0;exitDy=0;entryX=1;entryY=0.5;entryDx=0;entryDy=0;fontFamily=Helvetica;fontSize=12;fontColor=default;startSize=6;startArrow=classic;startFill=1;endArrow=none;endFill=0;" edge="1" parent="1" source="jCWovnf3UKTLc14nrEl1-24" target="jCWovnf3UKTLc14nrEl1-12">
          <mxGeometry relative="1" as="geometry" />
        </mxCell>
        <mxCell id="jCWovnf3UKTLc14nrEl1-115" value="销售订单" style="edgeLabel;html=1;align=center;verticalAlign=middle;resizable=0;points=[];fontSize=12;fontFamily=Helvetica;fontColor=default;" connectable="0" vertex="1" parent="jCWovnf3UKTLc14nrEl1-114">
          <mxGeometry x="0.3328" y="-2" relative="1" as="geometry">
            <mxPoint as="offset" />
          </mxGeometry>
        </mxCell>
        <mxCell id="jCWovnf3UKTLc14nrEl1-24" value="5&lt;br&gt;运送" style="rounded=1;whiteSpace=wrap;html=1;" vertex="1" parent="1">
          <mxGeometry x="987" y="709.5" width="85" height="81" as="geometry" />
        </mxCell>
        <mxCell id="jCWovnf3UKTLc14nrEl1-35" style="edgeStyle=orthogonalEdgeStyle;rounded=0;orthogonalLoop=1;jettySize=auto;html=1;exitX=0;exitY=0.5;exitDx=0;exitDy=0;entryX=0.75;entryY=1;entryDx=0;entryDy=0;fontFamily=Helvetica;fontSize=12;fontColor=default;startSize=26;" edge="1" parent="1" source="jCWovnf3UKTLc14nrEl1-25" target="jCWovnf3UKTLc14nrEl1-22">
          <mxGeometry relative="1" as="geometry" />
        </mxCell>
        <mxCell id="jCWovnf3UKTLc14nrEl1-36" value="收据" style="edgeLabel;html=1;align=center;verticalAlign=middle;resizable=0;points=[];fontSize=12;fontFamily=Helvetica;fontColor=default;" connectable="0" vertex="1" parent="jCWovnf3UKTLc14nrEl1-35">
          <mxGeometry x="0.1742" y="-2" relative="1" as="geometry">
            <mxPoint x="-1" as="offset" />
          </mxGeometry>
        </mxCell>
        <mxCell id="jCWovnf3UKTLc14nrEl1-37" style="edgeStyle=orthogonalEdgeStyle;rounded=0;orthogonalLoop=1;jettySize=auto;html=1;exitX=0;exitY=0.75;exitDx=0;exitDy=0;entryX=0.5;entryY=1;entryDx=0;entryDy=0;fontFamily=Helvetica;fontSize=12;fontColor=default;startSize=26;" edge="1" parent="1" source="jCWovnf3UKTLc14nrEl1-25" target="jCWovnf3UKTLc14nrEl1-22">
          <mxGeometry relative="1" as="geometry" />
        </mxCell>
        <mxCell id="jCWovnf3UKTLc14nrEl1-39" value="费用清单" style="edgeLabel;html=1;align=center;verticalAlign=middle;resizable=0;points=[];fontSize=12;fontFamily=Helvetica;fontColor=default;" connectable="0" vertex="1" parent="jCWovnf3UKTLc14nrEl1-37">
          <mxGeometry x="0.0085" relative="1" as="geometry">
            <mxPoint x="-1" as="offset" />
          </mxGeometry>
        </mxCell>
        <mxCell id="jCWovnf3UKTLc14nrEl1-50" style="edgeStyle=orthogonalEdgeStyle;rounded=0;orthogonalLoop=1;jettySize=auto;html=1;exitX=1;exitY=0.25;exitDx=0;exitDy=0;fontFamily=Helvetica;fontSize=12;fontColor=default;startSize=6;startArrow=classic;startFill=1;endArrow=none;endFill=0;" edge="1" parent="1" source="jCWovnf3UKTLc14nrEl1-25" target="jCWovnf3UKTLc14nrEl1-26">
          <mxGeometry relative="1" as="geometry" />
        </mxCell>
        <mxCell id="jCWovnf3UKTLc14nrEl1-52" value="交付记录" style="edgeLabel;html=1;align=center;verticalAlign=middle;resizable=0;points=[];fontSize=12;fontFamily=Helvetica;fontColor=default;" connectable="0" vertex="1" parent="jCWovnf3UKTLc14nrEl1-50">
          <mxGeometry x="-0.3209" y="3" relative="1" as="geometry">
            <mxPoint as="offset" />
          </mxGeometry>
        </mxCell>
        <mxCell id="jCWovnf3UKTLc14nrEl1-53" style="edgeStyle=orthogonalEdgeStyle;rounded=0;orthogonalLoop=1;jettySize=auto;html=1;exitX=1;exitY=1;exitDx=0;exitDy=0;entryX=0;entryY=1;entryDx=0;entryDy=0;fontFamily=Helvetica;fontSize=12;fontColor=default;startSize=26;" edge="1" parent="1" source="jCWovnf3UKTLc14nrEl1-25" target="jCWovnf3UKTLc14nrEl1-27">
          <mxGeometry relative="1" as="geometry" />
        </mxCell>
        <mxCell id="jCWovnf3UKTLc14nrEl1-54" value="收款记录" style="edgeLabel;html=1;align=center;verticalAlign=middle;resizable=0;points=[];fontSize=12;fontFamily=Helvetica;fontColor=default;" connectable="0" vertex="1" parent="jCWovnf3UKTLc14nrEl1-53">
          <mxGeometry x="-0.116" y="6" relative="1" as="geometry">
            <mxPoint as="offset" />
          </mxGeometry>
        </mxCell>
        <mxCell id="jCWovnf3UKTLc14nrEl1-55" style="edgeStyle=orthogonalEdgeStyle;rounded=0;orthogonalLoop=1;jettySize=auto;html=1;exitX=1;exitY=0.75;exitDx=0;exitDy=0;entryX=0;entryY=0.5;entryDx=0;entryDy=0;fontFamily=Helvetica;fontSize=12;fontColor=default;startSize=26;" edge="1" parent="1" source="jCWovnf3UKTLc14nrEl1-25" target="jCWovnf3UKTLc14nrEl1-27">
          <mxGeometry relative="1" as="geometry" />
        </mxCell>
        <mxCell id="jCWovnf3UKTLc14nrEl1-56" value="支付记录" style="edgeLabel;html=1;align=center;verticalAlign=middle;resizable=0;points=[];fontSize=12;fontFamily=Helvetica;fontColor=default;" connectable="0" vertex="1" parent="jCWovnf3UKTLc14nrEl1-55">
          <mxGeometry x="-0.339" y="7" relative="1" as="geometry">
            <mxPoint as="offset" />
          </mxGeometry>
        </mxCell>
        <mxCell id="jCWovnf3UKTLc14nrEl1-112" style="edgeStyle=orthogonalEdgeStyle;rounded=0;orthogonalLoop=1;jettySize=auto;html=1;exitX=0.5;exitY=1;exitDx=0;exitDy=0;entryX=1;entryY=0.5;entryDx=0;entryDy=0;fontFamily=Helvetica;fontSize=12;fontColor=default;startSize=26;" edge="1" parent="1" source="jCWovnf3UKTLc14nrEl1-25" target="jCWovnf3UKTLc14nrEl1-21">
          <mxGeometry relative="1" as="geometry" />
        </mxCell>
        <mxCell id="jCWovnf3UKTLc14nrEl1-113" value="支付细节" style="edgeLabel;html=1;align=center;verticalAlign=middle;resizable=0;points=[];fontSize=12;fontFamily=Helvetica;fontColor=default;" connectable="0" vertex="1" parent="jCWovnf3UKTLc14nrEl1-112">
          <mxGeometry x="0.304" y="-4" relative="1" as="geometry">
            <mxPoint as="offset" />
          </mxGeometry>
        </mxCell>
        <mxCell id="jCWovnf3UKTLc14nrEl1-25" value="6&lt;br&gt;财务管理" style="rounded=1;whiteSpace=wrap;html=1;" vertex="1" parent="1">
          <mxGeometry x="987" y="863.5" width="85" height="81" as="geometry" />
        </mxCell>
        <mxCell id="jCWovnf3UKTLc14nrEl1-26" value="交付记录表" style="html=1;dashed=0;whiteSpace=wrap;shape=partialRectangle;right=0;" vertex="1" parent="1">
          <mxGeometry x="1213" y="867.5" width="100" height="30" as="geometry" />
        </mxCell>
        <mxCell id="jCWovnf3UKTLc14nrEl1-27" value="收支记录表" style="html=1;dashed=0;whiteSpace=wrap;shape=partialRectangle;right=0;" vertex="1" parent="1">
          <mxGeometry x="1213" y="909.5" width="100" height="30" as="geometry" />
        </mxCell>
        <mxCell id="jCWovnf3UKTLc14nrEl1-103" style="edgeStyle=orthogonalEdgeStyle;rounded=0;orthogonalLoop=1;jettySize=auto;html=1;exitX=1;exitY=0.75;exitDx=0;exitDy=0;entryX=0.909;entryY=1.111;entryDx=0;entryDy=0;entryPerimeter=0;fontFamily=Helvetica;fontSize=12;fontColor=default;startSize=26;" edge="1" parent="1" source="jCWovnf3UKTLc14nrEl1-18" target="jCWovnf3UKTLc14nrEl1-17">
          <mxGeometry relative="1" as="geometry" />
        </mxCell>
        <mxCell id="jCWovnf3UKTLc14nrEl1-104" value="所需采购订单" style="edgeLabel;html=1;align=center;verticalAlign=middle;resizable=0;points=[];fontSize=12;fontFamily=Helvetica;fontColor=default;" connectable="0" vertex="1" parent="jCWovnf3UKTLc14nrEl1-103">
          <mxGeometry x="-0.5201" y="3" relative="1" as="geometry">
            <mxPoint as="offset" />
          </mxGeometry>
        </mxCell>
        <mxCell id="jCWovnf3UKTLc14nrEl1-128" value="销售订单表" style="html=1;dashed=0;whiteSpace=wrap;shape=partialRectangle;right=0;" vertex="1" parent="1">
          <mxGeometry x="264.5" y="1136" width="100" height="30" as="geometry" />
        </mxCell>
        <mxCell id="juhJGRoRe2M-gwVskrsM-1" value="" style="rounded=0;whiteSpace=wrap;html=1;" vertex="1" parent="1">
          <mxGeometry x="425" y="1304" width="43" height="307" as="geometry" />
        </mxCell>
        <mxCell id="juhJGRoRe2M-gwVskrsM-2" value="" style="rounded=0;whiteSpace=wrap;html=1;" vertex="1" parent="1">
          <mxGeometry x="514" y="1452" width="47" height="159" as="geometry" />
        </mxCell>
        <mxCell id="juhJGRoRe2M-gwVskrsM-3" value="" style="rounded=0;whiteSpace=wrap;html=1;" vertex="1" parent="1">
          <mxGeometry x="315" y="1526" width="48" height="85" as="geometry" />
        </mxCell>
        <mxCell id="juhJGRoRe2M-gwVskrsM-4" value="5" style="text;html=1;align=center;verticalAlign=middle;resizable=0;points=[];autosize=1;strokeColor=none;fillColor=none;" vertex="1" parent="1">
          <mxGeometry x="772" y="1383" width="25" height="26" as="geometry" />
        </mxCell>
      </root>
    </mxGraphModel>
  </diagram>
</mxfile>
